<svg height="512" viewBox="0 0 512 512" width="512" xmlns="http://www.w3.org/2000/svg"><g id="Exam"><path d="m136 48h48v48h-48z" fill="#57a4ff"/><path d="m136 208h48v48h-48z" fill="#57a4ff"/><path d="m136 288h48v48h-48z" fill="#57a4ff"/><path d="m136 128h48v48h-48z" fill="#57a4ff"/><path d="m336 496v-80h72" fill="#57a4ff"/><g fill="#004fac"><path d="m408 8h-304a8 8 0 0 0 -8 8v480a8 8 0 0 0 8 8h232a8 8 0 0 0 5.946-2.648l72-80a8 8 0 0 0 2.054-5.352v-400a8 8 0 0 0 -8-8zm-296 16h288v384h-64a8 8 0 0 0 -8 8v72h-216zm278.037 400-46.037 51.153v-51.153z"/><path d="m136 104h48a8 8 0 0 0 8-8v-48a8 8 0 0 0 -8-8h-48a8 8 0 0 0 -8 8v48a8 8 0 0 0 8 8zm8-48h32v32h-32z"/><path d="m208 104h88a8 8 0 0 0 0-16h-88a8 8 0 0 0 0 16z"/><path d="m208 80h168a8 8 0 0 0 0-16h-168a8 8 0 0 0 0 16z"/><path d="m208 56h168a8 8 0 0 0 0-16h-168a8 8 0 0 0 0 16z"/><path d="m320 88a8 8 0 0 0 0 16h8a8 8 0 0 0 0-16z"/><path d="m136 264h48a8 8 0 0 0 8-8v-48a8 8 0 0 0 -8-8h-48a8 8 0 0 0 -8 8v48a8 8 0 0 0 8 8zm8-48h32v32h-32z"/><path d="m208 264h88a8 8 0 0 0 0-16h-88a8 8 0 0 0 0 16z"/><path d="m208 240h168a8 8 0 0 0 0-16h-168a8 8 0 0 0 0 16z"/><path d="m208 216h168a8 8 0 0 0 0-16h-168a8 8 0 0 0 0 16z"/><path d="m320 248a8 8 0 0 0 0 16h8a8 8 0 0 0 0-16z"/><path d="m136 344h48a8 8 0 0 0 8-8v-48a8 8 0 0 0 -8-8h-48a8 8 0 0 0 -8 8v48a8 8 0 0 0 8 8zm8-48h32v32h-32z"/><path d="m208 344h88a8 8 0 0 0 0-16h-88a8 8 0 0 0 0 16z"/><path d="m208 320h168a8 8 0 0 0 0-16h-168a8 8 0 0 0 0 16z"/><path d="m208 296h168a8 8 0 0 0 0-16h-168a8 8 0 0 0 0 16z"/><path d="m328 344a8 8 0 0 0 0-16h-8a8 8 0 0 0 0 16z"/><path d="m136 184h48a8 8 0 0 0 8-8v-48a8 8 0 0 0 -8-8h-48a8 8 0 0 0 -8 8v48a8 8 0 0 0 8 8zm8-48h32v32h-32z"/><path d="m208 184h88a8 8 0 0 0 0-16h-88a8 8 0 0 0 0 16z"/><path d="m208 160h168a8 8 0 0 0 0-16h-168a8 8 0 0 0 0 16z"/><path d="m208 136h168a8 8 0 0 0 0-16h-168a8 8 0 0 0 0 16z"/><path d="m320 168a8 8 0 0 0 0 16h8a8 8 0 0 0 0-16z"/><path d="m304 376h-168a8 8 0 0 0 0 16h168a8 8 0 0 0 0-16z"/><path d="m304 400h-168a8 8 0 0 0 0 16h168a8 8 0 0 0 0-16z"/><path d="m304 424h-168a8 8 0 0 0 0 16h168a8 8 0 0 0 0-16z"/></g></g></svg>