<svg id="Layer_1" height="512" viewBox="0 0 128 128" width="512" xmlns="http://www.w3.org/2000/svg" data-name="Layer 1"><path d="m6.5 15.346h115v97.308h-115z" fill="#e4e4e4"/><path d="m6.5 15.346h115v14.141h-115z" fill="#30ade0"/><circle cx="82.958" cy="22.417" fill="#e4e4e4" r="3.023"/><circle cx="94.792" cy="22.417" fill="#ffd169" r="3.023"/><circle cx="106.625" cy="22.417" fill="#e5634e" r="3.023"/><path d="m109.65 49.936v31.479h-36.8l-8.85 10.791-8.85-10.791h-36.48v-31.479z" fill="#e5634e"/><g fill="#ffd169"><path d="m34.938 56.079 2.316 7.129h7.496l-6.064 4.407 2.316 7.129-6.064-4.406-6.065 4.406 2.317-7.129-6.065-4.407h7.496z"/><path d="m64 56.079 2.316 7.129h7.497l-6.065 4.407 2.317 7.129-6.065-4.406-6.065 4.406 2.317-7.129-6.065-4.407h7.497z"/><path d="m93.062 56.079 2.317 7.129h7.496l-6.065 4.407 2.317 7.129-6.065-4.406-6.064 4.406 2.316-7.129-6.064-4.407h7.496z"/></g></svg>