<?xml version="1.0" encoding="iso-8859-1"?>
<!-- Generator: Adobe Illustrator 21.0.0, SVG Export Plug-In . SVG Version: 6.00 Build 0)  -->
<svg version="1.1" id="Capa_1" xmlns="http://www.w3.org/2000/svg" xmlns:xlink="http://www.w3.org/1999/xlink" x="0px" y="0px"
	 viewBox="0 0 512.003 512.003" style="enable-background:new 0 0 512.003 512.003;" xml:space="preserve">
<g>
	<g transform="translate(1 1)">
		<path style="fill:#A4C2F7;" d="M178.203,452.719c0,27.477-19.115,49.749-42.667,49.749c-4.362-0.001-8.692-0.752-12.8-2.219
			c-18.814-8.158-30.679-27.041-29.867-47.531c-0.024-3.347,0.262-6.689,0.853-9.984h83.627
			C177.941,446.03,178.227,449.372,178.203,452.719z"/>
		<path style="fill:#E3E7F2;" d="M152.603,452.719c0.812,20.49-11.053,39.372-29.867,47.531
			c-18.814-8.158-30.679-27.041-29.867-47.531c-0.024-3.347,0.262-6.689,0.853-9.984h58.027
			C152.341,446.03,152.627,449.372,152.603,452.719z"/>
		<path style="fill:#A4C2F7;" d="M178.203,7.535h307.2c9.426,0,17.067,7.641,17.067,17.067v187.733
			c0,9.426-7.641,17.067-17.067,17.067h-307.2c-9.426,0-17.067-7.641-17.067-17.067V24.602
			C161.137,15.176,168.778,7.535,178.203,7.535z"/>
		<path style="fill:#E3E7F2;" d="M178.203,7.535h281.6c9.426,0,17.067,7.641,17.067,17.067v187.733
			c0,9.426-7.641,17.067-17.067,17.067h-281.6c-9.426,0-17.067-7.641-17.067-17.067V24.602
			C161.137,15.176,168.778,7.535,178.203,7.535z"/>
		<g>
			<path style="fill:#FFFFFF;" d="M306.203,144.068h51.2c4.713,0,8.533,3.821,8.533,8.533v17.067c0,4.713-3.82,8.533-8.533,8.533
				h-51.2c-4.713,0-8.533-3.821-8.533-8.533v-17.067C297.67,147.889,301.491,144.068,306.203,144.068z"/>
			<path style="fill:#FFFFFF;" d="M408.603,144.068h51.2c4.713,0,8.533,3.821,8.533,8.533v17.067c0,4.713-3.821,8.533-8.533,8.533
				h-51.2c-4.713,0-8.533-3.821-8.533-8.533v-17.067C400.07,147.889,403.891,144.068,408.603,144.068z"/>
			<path style="fill:#FFFFFF;" d="M203.803,144.068h51.2c4.713,0,8.533,3.821,8.533,8.533v17.067c0,4.713-3.821,8.533-8.533,8.533
				h-51.2c-4.713,0-8.533-3.821-8.533-8.533v-17.067C195.27,147.889,199.091,144.068,203.803,144.068z"/>
		</g>
		<path style="fill:#A4C2F7;" d="M263.451,435.738c-1.117,9.001-8.852,15.705-17.92,15.531H24.603
			c-4.528,0.024-8.871-1.793-12.032-5.035c-3.636-3.529-5.459-8.527-4.949-13.568c1.117-9.001,8.852-15.705,17.92-15.531
			c18.329-0.009,33.185-14.866,33.195-33.195v-91.989c0.035-36.441,24.646-68.273,59.904-77.483
			c-0.103-0.707-0.16-1.419-0.171-2.133c0.097-9.385,7.681-16.97,17.067-17.067c9.414,0.028,17.039,7.653,17.067,17.067
			c0.016,0.627-0.012,1.254-0.085,1.877c34.944,8.013,59.741,39.072,59.819,74.923v94.805c-0.005,8.805,3.491,17.251,9.717,23.477
			c6.226,6.226,14.672,9.722,23.477,9.717h0.939c4.782,0.03,9.334,2.056,12.559,5.588
			C262.253,426.255,263.856,430.973,263.451,435.738z"/>
		<path style="fill:#E3E7F2;" d="M237.851,435.738c-1.117,9.001-8.852,15.705-17.92,15.531H24.603
			c-4.528,0.024-8.871-1.793-12.032-5.035c-3.636-3.529-5.459-8.527-4.949-13.568c1.117-9.001,8.852-15.705,17.92-15.531
			c18.329-0.009,33.185-14.866,33.195-33.195v-91.989c0.035-36.441,24.646-68.273,59.904-77.483
			c-0.103-0.707-0.16-1.419-0.171-2.133c0.006-4.123,1.524-8.1,4.267-11.179c2.742,3.079,4.26,7.056,4.267,11.179
			c0.016,0.627-0.012,1.254-0.085,1.877c34.944,8.013,59.741,39.072,59.819,74.923v94.805c-0.005,8.805,3.491,17.251,9.717,23.477
			c6.226,6.226,14.672,9.722,23.477,9.717h0.939c4.782,0.03,9.334,2.056,12.559,5.588
			C236.653,426.255,238.256,430.973,237.851,435.738z"/>
		<g>
			<path style="fill:#FFFFFF;" d="M161.137,24.602v170.667c9.414,0.028,17.039,7.653,17.067,17.067
				c0.016,0.627-0.012,1.254-0.085,1.877c3.188,0.742,6.324,1.694,9.387,2.85c-0.478-1.532-0.736-3.123-0.768-4.727V24.602
				c0.028-9.414,7.653-17.039,17.067-17.067h-25.6C168.789,7.563,161.165,15.188,161.137,24.602z"/>
			<path style="fill:#FFFFFF;" d="M122.737,500.25c4.108,1.467,8.438,2.217,12.8,2.219c4.34-0.003,8.646-0.765,12.723-2.253
				c-18.77-8.18-30.598-27.038-29.79-47.497c0-0.486,0.051-0.964,0.06-1.451h-25.6c0,0.486-0.06,0.964-0.06,1.451
				C92.058,473.209,103.923,492.092,122.737,500.25z"/>
			<path style="fill:#FFFFFF;" d="M25.542,417.135c-9.068-0.174-16.803,6.53-17.92,15.531c-0.51,5.041,1.313,10.039,4.949,13.568
				c3.161,3.241,7.504,5.059,12.032,5.035h25.6c-4.782-0.03-9.334-2.056-12.559-5.588c-3.224-3.532-4.827-8.25-4.423-13.015
				c1.117-9.001,8.852-15.705,17.92-15.531c18.329-0.009,33.185-14.866,33.195-33.195v-91.989
				c0.035-36.441,24.646-68.273,59.904-77.483c-0.103-0.707-0.16-1.419-0.171-2.133c0.007-4.118,1.525-8.089,4.267-11.162
				c-4.679-5.306-12.148-7.175-18.775-4.699c-6.627,2.477-11.039,8.786-11.092,15.86c0.011,0.714,0.068,1.427,0.171,2.133
				c-35.258,9.209-59.869,41.041-59.904,77.483v91.989C58.727,402.269,43.871,417.126,25.542,417.135z"/>
		</g>
	</g>
	<g>
		<polygon style="fill:#FFFFFF;" points="153.603,153.602 153.603,42.668 153.603,25.602 170.67,25.602 170.67,42.668 
			170.67,153.602 		"/>
		<g>
			<path style="fill:#428DFF;" d="M153.603,153.602v8.533c0,4.713,3.821,8.533,8.533,8.533s8.533-3.82,8.533-8.533v-42.667
				c0-4.713-3.821-8.533-8.533-8.533s-8.533,3.821-8.533,8.533V153.602z"/>
			<path style="fill:#428DFF;" d="M158.894,93.186c0.484,0.247,1.001,0.419,1.536,0.512c0.564,0.095,1.135,0.152,1.707,0.171
				c2.259-0.033,4.422-0.917,6.059-2.475c0.771-0.816,1.38-1.772,1.792-2.816c1.287-3.183,0.586-6.825-1.792-9.301
				c-0.816-0.771-1.772-1.38-2.816-1.792c-1.026-0.437-2.128-0.669-3.243-0.683c-3.467-0.02-6.601,2.059-7.931,5.261
				c-1.329,3.202-0.59,6.89,1.872,9.331l1.28,1.024C157.834,92.741,158.35,92.999,158.894,93.186z"/>
			<path style="fill:#428DFF;" d="M486.403,0.002h-307.2c-14.138,0-25.6,11.462-25.6,25.6v25.6c0,4.713,3.821,8.533,8.533,8.533
				s8.533-3.821,8.533-8.533v-25.6c0-4.713,3.82-8.533,8.533-8.533h307.2c4.713,0,8.533,3.821,8.533,8.533v187.733
				c0,4.713-3.82,8.533-8.533,8.533H238.937c-4.713,0-8.533,3.821-8.533,8.533c0,4.713,3.821,8.533,8.533,8.533h247.467
				c14.138,0,25.6-11.462,25.6-25.6V25.602C512.003,11.463,500.542,0.002,486.403,0.002z"/>
			<path style="fill:#428DFF;" d="M307.203,136.535c-9.426,0-17.067,7.641-17.067,17.067v17.067c0,9.426,7.641,17.067,17.067,17.067
				h51.2c9.426,0,17.067-7.641,17.067-17.067v-17.067c0-9.426-7.641-17.067-17.067-17.067H307.203z M307.203,170.668v-17.067h51.2
				v17.067H307.203z"/>
			<path style="fill:#428DFF;" d="M187.737,153.602v17.067c0,9.426,7.641,17.067,17.067,17.067h51.2
				c9.426,0,17.067-7.641,17.067-17.067v-17.067c0-9.426-7.641-17.067-17.067-17.067h-51.2
				C195.378,136.535,187.737,144.176,187.737,153.602z M204.803,153.602h51.2v17.067h-51.2V153.602z"/>
			<path style="fill:#428DFF;" d="M392.537,153.602v17.067c0,9.426,7.641,17.067,17.067,17.067h51.2
				c9.426,0,17.067-7.641,17.067-17.067v-17.067c0-9.426-7.641-17.067-17.067-17.067h-51.2
				C400.178,136.535,392.537,144.176,392.537,153.602z M460.803,170.668h-51.2v-17.067h51.2V170.668z"/>
			<path style="fill:#428DFF;" d="M418.137,51.202H204.803c-4.713,0-8.533,3.821-8.533,8.533s3.821,8.533,8.533,8.533h213.333
				c4.713,0,8.533-3.821,8.533-8.533S422.85,51.202,418.137,51.202z"/>
			<path style="fill:#428DFF;" d="M204.803,110.935h136.533c4.713,0,8.533-3.821,8.533-8.533c0-4.713-3.821-8.533-8.533-8.533
				H204.803c-4.713,0-8.533,3.821-8.533,8.533C196.27,107.115,200.091,110.935,204.803,110.935z"/>
			<path style="fill:#428DFF;" d="M111.304,208.957c-35.94,12.257-60.099,46.021-60.1,83.994v91.989
				c-0.019,13.616-11.054,24.647-24.67,24.661c-13.462-0.183-24.874,9.86-26.402,23.236c-0.776,7.537,1.914,15.019,7.313,20.335
				c4.758,4.915,11.318,7.671,18.159,7.629h59.733c0,28.277,22.923,51.2,51.2,51.2s51.2-22.923,51.2-51.2h58.795
				c13.478,0.173,24.895-9.894,26.411-23.287c0.623-7.152-1.776-14.238-6.616-19.541c-4.839-5.303-11.677-8.339-18.856-8.371h-0.939
				c-13.612-0.019-24.643-11.049-24.661-24.661v-94.805c0.085-22.645-8.933-44.375-25.028-60.305
				c-9.811-9.843-21.877-17.143-35.149-21.265c-2.337-12.122-12.992-20.849-25.337-20.753c-12.345,0.096-22.862,8.989-25.01,21.145
				H111.304z M136.537,494.935c-18.851,0-34.133-15.282-34.133-34.133h68.267C170.67,479.653,155.388,494.935,136.537,494.935z
				 M145.07,214.018c-0.62,4.398,2.238,8.537,6.571,9.515c31.052,7.139,53.084,34.741,53.163,66.603v94.805
				c0.047,23.026,18.702,41.681,41.728,41.728h0.939c2.3-0.011,4.501,0.935,6.076,2.611c1.782,1.717,2.673,4.16,2.415,6.622v0.154
				c-0.744,4.567-4.762,7.873-9.387,7.723H25.603c-2.297,0.009-4.495-0.937-6.067-2.611c-1.803-1.75-2.692-4.237-2.406-6.733
				c0.725-4.591,4.759-7.921,9.404-7.765c23.043-0.009,41.722-18.685,41.737-41.728v-91.989
				c-0.123-32.548,21.847-61.032,53.359-69.18c4.239-1.087,7.009-5.155,6.468-9.498c-0.05-0.311-0.081-0.624-0.094-0.939
				c0-4.713,3.821-8.533,8.533-8.533c2.369,0.045,4.618,1.053,6.228,2.792C144.375,209.332,145.208,211.652,145.07,214.018z"/>
		</g>
	</g>
</g>
<g>
</g>
<g>
</g>
<g>
</g>
<g>
</g>
<g>
</g>
<g>
</g>
<g>
</g>
<g>
</g>
<g>
</g>
<g>
</g>
<g>
</g>
<g>
</g>
<g>
</g>
<g>
</g>
<g>
</g>
</svg>
